<?xml version="1.0" encoding="utf-8"?>
<!-- Generator: Adobe Illustrator 28.1.0, SVG Export Plug-In . SVG Version: 6.00 Build 0)  -->
<svg version="1.1" id="Layer_1" xmlns="http://www.w3.org/2000/svg" xmlns:xlink="http://www.w3.org/1999/xlink" x="0px" y="0px"
	 viewBox="0 0 500 500" style="enable-background:new 0 0 500 500;" xml:space="preserve">
<style type="text/css">
	.st0{fill:#8CB861;}
</style>
<g>
	<path class="st0" d="M423.6,144.2c-0.5,1.8-0.7,3.7-1.4,5.3c-2.2,4.5-3.8,9.5-7.1,13c-8.7,9.4-18.2,18-27.2,26.8
		c-23.5-23.5-47.3-47.3-70.7-70.8c8.7-9,17.2-18.7,26.8-27.2c12.6-11.3,33.8-11,46.5,0.3c8.6,7.8,16.6,16.3,24.7,24.7
		c5,5.2,7,11.9,8.5,18.7C423.6,138.1,423.6,141.2,423.6,144.2z"/>
	<path class="st0" d="M295.7,139.2c23.9,23.9,47.6,47.6,71.5,71.5c-0.7,0.8-1.5,1.6-2.3,2.5c-60,60-119.9,119.9-180,179.8
		c-1.9,1.9-4.6,3.4-7.2,4c-26.1,6.7-52.3,13.1-78.4,19.6c-7,1.7-11.3-2.6-9.6-9.7c6.6-26.5,13.1-52.9,19.8-79.4
		c0.5-1.9,1.6-3.9,3-5.3c60.4-60.6,120.9-121,181.4-181.5C294.5,140.2,295.1,139.8,295.7,139.2z"/>
</g>
</svg>
