<?xml version="1.0" encoding="utf-8"?>
<!-- Generator: Adobe Illustrator 28.1.0, SVG Export Plug-In . SVG Version: 6.00 Build 0)  -->
<svg version="1.1" id="Layer_1" xmlns="http://www.w3.org/2000/svg" xmlns:xlink="http://www.w3.org/1999/xlink" x="0px" y="0px"
	 viewBox="0 0 500 500" style="enable-background:new 0 0 500 500;" xml:space="preserve">
<style type="text/css">
	.st0{fill:#8CB861;}
</style>
<path class="st0" d="M169.2,176.9c0-15.1-0.3-29.7,0.1-44.3c0.9-33.6,15.8-59.4,44.9-76.1c53.8-30.8,122.7,4.1,129.5,65.6
	c1.6,14.6,0.7,29.5,1,44.3c0.1,3.3,0,6.6,0,10.5c2,0,3.6,0,5.2,0c21.9,0,43.9,0,65.8,0c11.8,0,17.9,7.2,16.4,18.8
	c-4.3,35-8.4,70.1-12.6,105.2c-4.2,34.9-8.1,69.8-12.7,104.7c-3.7,27.5-27.6,48.3-55.3,49.2c-1.1,0-2.1,0.1-3.2,0.1
	c-60.9,0-121.8,0.1-182.8,0c-28.7,0-52.2-18.4-58-46.1c-2.7-12.8-3.5-25.9-5.1-38.9c-3.9-32.3-7.7-64.7-11.6-97
	c-3.1-26.3-6.3-52.6-9.4-78.9c-1.1-10,5.4-16.9,15.7-16.9c22.1,0,44.2,0,66.2,0C165.2,176.9,166.8,176.9,169.2,176.9z M314.6,176.7
	c0-17.9,1.5-35.6-0.3-52.8c-2.9-28.1-28.7-49.3-57.4-49.4c-28.7,0-54.3,21.1-57.4,49.3c-1.8,16.3-0.8,32.8-1.1,49.3
	c0,1.2,0.2,2.3,0.2,3.7C237.6,176.7,276.2,176.7,314.6,176.7z M198.4,220.7c0-7.9-6.6-14.5-14.6-14.5c-8.2,0-14.8,6.7-14.6,14.9
	c0.1,7.9,6.9,14.4,14.8,14.3C191.9,235.3,198.5,228.7,198.4,220.7z M329.9,235.4c7.9,0.1,14.6-6.4,14.7-14.4
	c0.1-7.9-6.4-14.7-14.3-14.8c-8.2-0.2-14.9,6.4-14.9,14.6C315.4,228.7,322,235.3,329.9,235.4z"/>
</svg>
