<?xml version="1.0" encoding="utf-8"?>
<!-- Generator: Adobe Illustrator 28.1.0, SVG Export Plug-In . SVG Version: 6.00 Build 0)  -->
<svg version="1.1" id="Layer_1" xmlns="http://www.w3.org/2000/svg" xmlns:xlink="http://www.w3.org/1999/xlink" x="0px" y="0px"
	 viewBox="0 0 500 500" style="enable-background:new 0 0 500 500;" xml:space="preserve">
<style type="text/css">
	.st0{fill:#8CB861;}
</style>
<g>
	<path class="st0" d="M322.4,244.8c-41.9,11.6-69,37.7-77.4,80c-8.4,42.3,7.6,76.4,41.7,103.4c-7.6,0.7-14.4,1.5-21.2,1.9
		c-61.9,4-122.1-4.5-180.6-25.3c-10.4-3.7-15.9-11.2-15.9-22.2c-0.1-16.5-0.3-32.9,0-49.4c0.5-29.2,13.2-51.9,37.7-67.7
		c22.2-14.3,46.3-24.6,72.1-30.4c2.1-0.5,4.8-0.1,6.7,1c32.3,18.2,64.7,18,97,0.6c4-2.1,7.3-2.7,11.4-1.4c8.4,2.7,17,5.3,25.4,7.9
		C320.3,243.7,321.2,244.3,322.4,244.8z"/>
	<path class="st0" d="M152.3,152.1c-0.1-45.8,37.2-83.1,83.2-83.2c46.1-0.1,83.4,37.2,83.4,83.4c0,45.3-38.6,83-84.8,83
		C189.6,235.3,152.3,197.3,152.3,152.1z"/>
	<path class="st0" d="M257.3,343.5c0-47.2,39.2-86.1,86.8-86.2c48-0.1,87.1,38.9,87.1,86.8c0,47.9-39.2,87-87,87
		C296.1,431.1,257.3,392,257.3,343.5z M354.6,344.4c1.4-1.5,2.4-2.6,3.5-3.7c8.7-8.8,17.5-17.5,26.2-26.3c4.3-4.4,3.8-10.3-1-12.5
		c-3.6-1.7-6.7-0.5-9.4,2.3c-8.7,8.8-17.5,17.5-26.2,26.3c-1.1,1.1-2.3,2.2-3.5,3.3c-0.9-0.9-1.5-1.4-2-1.9
		c-9.3-9.3-18.5-18.6-27.9-27.8c-3.7-3.7-8.2-3.8-11.2-0.6c-2.9,3.1-2.6,7.1,1,10.9c2.6,2.7,5.3,5.4,8,8
		c7.2,7.2,14.5,14.4,21.9,21.8c-1.5,1.6-2.6,2.8-3.7,3.9c-8.9,8.9-17.8,17.7-26.6,26.6c-3.2,3.2-3.3,7.2-0.7,10.2
		c2.5,2.9,6.9,3.2,10.2,0.7c0.9-0.7,1.8-1.7,2.6-2.5c8.5-8.5,17.1-17.1,25.6-25.6c0.9-0.9,1.9-1.7,3.4-3c2.6,2.8,4.9,5.4,7.3,7.9
		c7.4,7.5,14.9,15,22.4,22.4c2.5,2.5,5.8,3.6,8.6,1.7c2-1.3,3.9-4.1,4-6.4c0.1-2.1-1.7-4.8-3.4-6.5
		C374.3,363.8,364.6,354.3,354.6,344.4z"/>
</g>
</svg>
