<?xml version="1.0" encoding="utf-8"?>
<!-- Generator: Adobe Illustrator 28.1.0, SVG Export Plug-In . SVG Version: 6.00 Build 0)  -->
<svg version="1.1" id="Layer_1" xmlns="http://www.w3.org/2000/svg" xmlns:xlink="http://www.w3.org/1999/xlink" x="0px" y="0px"
	 viewBox="0 0 500 500" style="enable-background:new 0 0 500 500;" xml:space="preserve">
<style type="text/css">
	.st0{fill:#8CB861;}
</style>
<path class="st0" d="M259.8,58.3c7.6,1.3,15.3,2.1,22.8,3.8c55.4,12.4,99.8,59.9,109.1,115.9c5.5,33.1-0.4,64.5-12.5,95.1
	c-14.3,36.4-35.5,68.8-59.7,99.3c-18.1,22.8-37.8,44.2-59.1,64c-7.5,6.9-13.1,7-20.5,0c-40.2-37.8-75.5-79.6-102.3-128.1
	c-14.1-25.6-24.9-52.4-29.4-81.5C95.4,145.1,150.5,73.5,225.6,60.5c4.9-0.8,9.8-1.5,14.7-2.2C246.8,58.3,253.3,58.3,259.8,58.3z
	 M329.9,199.7c-1.9-44.5-38.6-79.2-82-77.5c-44.5,1.7-79.4,38.6-77.7,82.1c1.8,44.3,38.8,79.3,82,77.5
	C296.8,280,331.7,243.1,329.9,199.7z"/>
</svg>
