<?xml version="1.0" encoding="utf-8"?>
<!-- Generator: Adobe Illustrator 28.1.0, SVG Export Plug-In . SVG Version: 6.00 Build 0)  -->
<svg version="1.1" id="Layer_1" xmlns="http://www.w3.org/2000/svg" xmlns:xlink="http://www.w3.org/1999/xlink" x="0px" y="0px"
	 viewBox="0 0 500 500" style="enable-background:new 0 0 500 500;" xml:space="preserve">
<style type="text/css">
	.st0{fill:#8CB861;}
</style>
<path class="st0" d="M241.8,58.4c5.5,0,11,0,16.5,0c2.8,0.5,5.6,1,8.4,1.5c41,6.6,74.9,42.3,78.3,83.6c1.4,17.5,0.6,35.1,0.9,52.7
	c0,1.8,0,3.7,0,5.9c3.6,0,6.8,0,10,0c22.6,0,37.9,15.3,37.9,37.7c0,54.6,0,109.3,0,163.9c0,22.5-15.3,37.8-37.8,37.9
	c-22.5,0-44.9,0-67.4,0c-48.5,0-97.1,0-145.6,0c-20.3,0-36.5-15.4-36.6-35.2c-0.2-56.4-0.2-112.8,0-169.2
	c0-17.1,12.8-31.7,29.7-34.4c5.8-0.9,11.9-0.7,18.2-1c0-1.4,0-2.7,0-4c0-15.1-0.1-30.2,0-45.3c0.5-40,27-76.4,65.1-88.8
	C226.6,61.2,234.3,60.1,241.8,58.4z M313.8,202c0-12.7,0.1-25,0-37.3c-0.1-7.2,0.1-14.5-1-21.6c-5-33.3-38.7-57.6-71.9-52.1
	c-32.5,5.4-54.5,31.1-54.6,64c-0.1,14.5,0,28.9,0,43.4c0,1.2,0.1,2.4,0.2,3.6C229,202,271.1,202,313.8,202z M250,265.9
	c-13.7,0.1-26,9-30.3,22.1c-4.3,13,0.1,27.1,11.3,35.2c2.4,1.8,3.2,3.6,3.2,6.5c-0.1,10.2-0.1,20.4,0,30.7c0,2,0.1,4,0.6,5.9
	c2.1,7.4,9.5,12.3,16.8,11.4c8.2-1,14.1-7.1,14.3-15.2c0.2-10.8,0.2-21.7,0-32.5c0-3,0.7-4.9,3.3-6.8c11.2-8.2,15.5-22.3,11.2-35.3
	C275.9,274.8,263.6,265.9,250,265.9z"/>
</svg>
